<svg width="827" height="325" viewBox="0 0 827 325" fill="none" xmlns="http://www.w3.org/2000/svg">
<path d="M0 0V288.01H185.34L225.66 324.34V288.01H286.79V0H0ZM93.79 126.63H114.4V147.12H93.79V126.63ZM112.31 176.82C112.31 181.36 108.63 185.03 104.1 185.03C99.57 185.03 95.89 181.35 95.89 176.82C95.89 172.29 99.57 168.61 104.1 168.61C108.63 168.61 112.31 172.29 112.31 176.82ZM99.03 205.79L108.17 208.22C105.92 216.65 98.27 222.53 89.54 222.53C80.81 222.53 73.16 216.65 70.9 208.23L80.03 205.77C81.19 210.06 85.09 213.06 89.54 213.06C93.99 213.06 97.88 210.06 99.03 205.78V205.79ZM66.77 176.82C66.77 172.29 70.45 168.61 74.98 168.61C79.51 168.61 83.19 172.29 83.19 176.82C83.19 181.35 79.51 185.03 74.98 185.03C70.45 185.03 66.77 181.35 66.77 176.82ZM64.68 126.63H85.29V147.12H64.68V126.63ZM35.68 126.63H56.17V147.12H35.68V126.63ZM35.68 155.62H56.17V176.1H35.68V155.62ZM35.68 202.17V184.6H56.17V202.17C56.17 202.69 56.21 203.2 56.23 203.72V203.73C56.23 203.73 56.23 203.73 56.23 203.72L35.95 207.3C35.8 205.61 35.68 203.9 35.68 202.17ZM45.36 232.97C41.67 227.67 39.02 221.83 37.43 215.68L57.68 212.11H57.69C58.69 215.34 60.2 218.41 62.17 221.24C62.17 221.24 64.01 223.67 65.03 224.78L51.79 240.56C49.45 238.25 47.29 235.71 45.37 232.97H45.36ZM143.41 202.18C143.41 231.89 119.24 256.04 89.55 256.04C78.21 256.04 67.33 252.43 58.32 246.01L71.55 230.24C76.86 233.64 83.08 235.54 89.55 235.54C107.95 235.54 122.92 220.57 122.92 202.17V126.61H143.42V202.17L143.41 202.18ZM247.04 238.29C243.23 244.01 237.76 248.47 230.61 251.68C223.46 254.89 214.82 256.49 204.69 256.49L204.71 256.47C194.87 256.47 186.33 254.91 179.1 251.8C171.86 248.69 166.22 244.17 162.15 238.25C158.09 232.33 155.89 225.22 155.54 216.93H177C177.29 221.62 178.67 225.51 181.16 228.6C183.64 231.69 186.94 234.03 191.03 235.59C195.11 237.17 199.62 237.95 204.54 237.95C209.86 237.95 214.52 237.15 218.53 235.55C222.53 233.95 225.68 231.69 227.97 228.77C230.26 225.85 231.4 222.48 231.4 218.64C231.4 215.21 230.43 212.35 228.48 210.06C226.53 207.77 223.79 205.87 220.24 204.36C216.69 202.84 212.51 201.46 207.71 200.2L193.21 196.42C182.29 193.62 173.85 189.44 167.9 183.89C161.95 178.34 158.98 171.1 158.98 162.18C158.98 154.68 160.97 148.13 164.94 142.53C168.91 136.93 174.41 132.57 181.41 129.44C188.41 126.33 196.32 124.77 205.13 124.77C213.94 124.77 222.08 126.35 228.85 129.49C235.63 132.64 240.95 136.97 244.81 142.49C248.67 148.01 250.69 154.4 250.87 161.66H230.01C229.38 155.82 226.82 151.29 222.33 148.06C217.84 144.83 212.01 143.21 204.87 143.21C199.95 143.21 195.65 143.97 191.96 145.48C188.27 147 185.44 149.1 183.46 151.78C181.49 154.47 180.5 157.51 180.5 160.88C180.5 164.54 181.61 167.54 183.84 169.9C186.07 172.25 188.92 174.15 192.38 175.6C195.85 177.05 199.4 178.25 203.07 179.16L215.34 182.34C220.2 183.42 224.85 184.93 229.29 186.85C233.73 188.77 237.72 191.14 241.27 193.98C244.82 196.82 247.62 200.26 249.68 204.33C251.74 208.39 252.78 213.14 252.78 218.57C252.78 226.01 250.88 232.59 247.08 238.31L247.04 238.29Z" fill="white"/>
<path d="M340.709 181.12H328.609L346.389 127.26H365.939L384.379 181.12H371.839L367.489 167.77H344.989L340.709 181.12ZM348.159 157.73H364.169L357.459 137.15H354.729L348.159 157.73Z" fill="white"/>
<path d="M402.48 181.12H391.41V127.26H408.08L420.4 157.51H421.8L433.97 127.26H450.94V181.12H438.99V139.44L426.45 170.2H414.94L402.47 139.8V181.12H402.48Z" fill="white"/>
<path d="M481.77 182.52C467.09 182.52 459.27 175.07 459.27 164.59H471C471 168.72 474.17 172.34 481.77 172.34C488.48 172.34 492.1 169.46 492.1 165.33C492.1 161.86 489.3 159.87 482.73 159.28L478.67 158.91C467.9 158.03 461.04 151.98 461.04 142.38C461.04 132.05 468.86 125.63 480.89 125.63C493.58 125.63 501.18 132.64 501.18 143.19H489.38C489.38 139.28 486.5 135.81 480.9 135.81C475.3 135.81 472.86 138.83 472.86 142.38C472.86 145.48 474.85 147.99 479.79 148.36L483.92 148.73C495.65 149.76 503.91 155.37 503.91 165.33C503.91 175.29 495.43 182.52 481.78 182.52H481.77Z" fill="white"/>
<path d="M533.45 181.12H521.35V137.81H506.23V127.26H548.65V137.81H533.45V181.12Z" fill="white"/>
<path d="M590.12 181.12H556.26V127.26H589.61V137.29H568.07V148.72H588.43V158.75H568.07V171.07H590.13V181.1L590.12 181.12Z" fill="white"/>
<path d="M612.161 181.12H600.061V126.82H621.231C634.731 126.82 643.141 132.87 643.141 144.9V146.08C643.141 153.97 639.451 159.21 633.031 161.87L646.751 181.13H632.731L621.001 163.87H612.151V181.13L612.161 181.12ZM622.191 137.08H612.161V154.34H622.191C627.431 154.34 630.901 150.95 630.901 145.71C630.901 140.47 627.431 137.08 622.191 137.08Z" fill="white"/>
<path d="M673.95 181.42H653.96V126.83H673.95C693.35 126.83 703.17 139.22 703.17 153.24V154.86C703.17 167.99 693.36 181.42 673.95 181.42ZM674.61 138.11H666.05V170.13H674.61C684.79 170.13 690.91 163.71 690.91 154.05C690.91 144.39 684.79 138.11 674.61 138.11Z" fill="white"/>
<path d="M716.289 181.12H704.189L721.969 127.26H741.519L759.959 181.12H747.419L743.069 167.77H720.569L716.289 181.12ZM723.749 157.73H739.759L733.049 137.15H730.319L723.749 157.73Z" fill="white"/>
<path d="M778.06 181.12H766.99V127.26H783.66L795.98 157.51H797.38L809.55 127.26H826.52V181.12H814.57V139.44L802.03 170.2H790.52L778.05 139.8V181.12H778.06Z" fill="white"/>
<path d="M343.001 254.9H334.891V201.04H346.841L361.601 235.05H362.851L377.461 201.04H389.561V254.9H380.781V211.15L366.761 243.83H357.021L343.001 211.44V254.89V254.9Z" fill="white"/>
<path d="M436.51 254.9H403.97V201.04H435.84V208.71H412.75V223.69H434.44V231.36H412.75V247.22H436.51V254.89V254.9Z" fill="white"/>
<path d="M480.601 254.9H448.061V201.04H479.931V208.71H456.841V223.69H478.531V231.36H456.841V247.22H480.601V254.89V254.9Z" fill="white"/>
<path d="M511.57 254.9H502.72V208.86H486.78V201.04H527.58V208.86H511.57V254.9Z" fill="white"/>
<path d="M558.159 256.22C543.259 256.22 535.359 247.15 535.359 233.35V201.04H544.209V234.09C544.209 242.5 549.149 248.03 558.149 248.03C567.149 248.03 572.019 242.57 572.019 234.09V201.04H580.869V233.35C580.869 247.15 573.049 256.22 558.149 256.22H558.159Z" fill="white"/>
<path d="M603.18 254.9H594.33V200.67H611.89C625.24 200.67 632.62 207.53 632.62 218.38V219.56C632.62 230.41 625.24 237.27 611.89 237.27H603.18V254.9ZM612.92 208.42H603.18V229.52H612.92C619.93 229.52 623.62 225.09 623.62 218.97C623.62 212.85 619.93 208.42 612.92 208.42Z" fill="white"/>
</svg>
