<svg width="827" height="325" viewBox="0 0 827 325" fill="none" xmlns="http://www.w3.org/2000/svg">
<path d="M0 0V288.011H185.337L225.657 324.339V288.011H286.783V0H0Z" fill="#FEF502"/>
<path d="M204.708 256.469C194.868 256.469 186.327 254.911 179.096 251.796C171.855 248.681 166.213 244.163 162.149 238.243C158.085 232.322 155.888 225.215 155.537 216.922H176.992C177.281 221.615 178.663 225.504 181.149 228.588C183.635 231.682 186.925 234.013 191.02 235.581C195.105 237.159 199.612 237.943 204.533 237.943C209.855 237.943 214.517 237.139 218.519 235.54C222.522 233.941 225.668 231.682 227.958 228.763C230.247 225.844 231.392 222.471 231.392 218.634C231.392 215.199 230.423 212.342 228.473 210.052C226.524 207.762 223.78 205.864 220.232 204.348C216.683 202.832 212.506 201.45 207.699 200.191L193.197 196.416C182.273 193.61 173.836 189.433 167.884 183.883C161.932 178.334 158.962 171.093 158.962 162.171C158.962 154.672 160.952 148.122 164.924 142.521C168.895 136.92 174.393 132.557 181.396 129.431C188.4 126.316 196.312 124.759 205.12 124.759C213.929 124.759 222.068 126.337 228.845 129.483C235.621 132.629 240.944 136.961 244.802 142.48C248.659 147.998 250.681 154.393 250.856 161.655H230C229.371 155.817 226.813 151.289 222.315 148.05C217.828 144.821 212 143.202 204.852 143.202C199.932 143.202 195.631 143.965 191.938 145.471C188.245 146.987 185.419 149.091 183.439 151.773C181.469 154.465 180.478 157.498 180.478 160.871C180.478 164.533 181.592 167.534 183.82 169.886C186.048 172.238 188.895 174.136 192.361 175.59C195.827 177.045 199.385 178.241 203.047 179.149L215.322 182.326C220.18 183.409 224.832 184.915 229.267 186.833C233.703 188.752 237.695 191.124 241.243 193.961C244.791 196.798 247.597 200.243 249.65 204.307C251.713 208.371 252.744 213.116 252.744 218.552C252.744 225.988 250.846 232.569 247.04 238.294C243.234 244.019 237.757 248.475 230.608 251.683C223.46 254.891 214.816 256.489 204.687 256.489L204.708 256.469Z" fill="black"/>
<path d="M122.911 126.626V202.182C122.911 220.584 107.945 235.551 89.5429 235.551C83.0755 235.551 76.8556 233.653 71.5435 230.249L58.3096 246.02C67.3247 252.436 78.2069 256.046 89.5429 256.046C119.239 256.046 143.407 231.889 143.407 202.182V126.626H122.922H122.911Z" fill="black"/>
<path d="M114.404 126.626H93.7949V147.111H114.404V126.626Z" fill="#F0C814"/>
<path d="M85.2848 126.626H64.6758V147.111H85.2848V126.626Z" fill="#F0C814"/>
<path d="M56.1659 126.626H35.6807V147.111H56.1659V126.626Z" fill="#F0C814"/>
<path d="M56.1659 155.621H35.6807V176.106H56.1659V155.621Z" fill="#F0C814"/>
<path d="M56.2288 203.729C56.2081 203.213 56.1669 202.698 56.1669 202.172V184.605H35.6816V202.172C35.6816 203.894 35.7951 205.606 35.9498 207.298L56.2288 203.719V203.729Z" fill="#F0C814"/>
<path d="M57.6728 212.115L37.4248 215.684C39.0133 221.832 41.6642 227.67 45.3569 232.972C47.2755 235.716 49.4313 238.253 51.7727 240.564L65.017 224.782C63.9958 223.678 62.1598 221.244 62.1598 221.244C60.1896 218.418 58.6837 215.344 57.6831 212.115H57.6728Z" fill="#F0C814"/>
<path d="M74.9782 185.029C79.5128 185.029 83.1888 181.353 83.1888 176.818C83.1888 172.283 79.5128 168.607 74.9782 168.607C70.4436 168.607 66.7676 172.283 66.7676 176.818C66.7676 181.353 70.4436 185.029 74.9782 185.029Z" fill="black"/>
<path d="M104.097 185.029C108.632 185.029 112.308 181.353 112.308 176.818C112.308 172.283 108.632 168.607 104.097 168.607C99.5627 168.607 95.8867 172.283 95.8867 176.818C95.8867 181.353 99.5627 185.029 104.097 185.029Z" fill="black"/>
<path d="M89.5422 222.533C80.8365 222.533 73.1623 216.653 70.9033 208.236L80.0319 205.781C81.1872 210.072 85.0965 213.074 89.5422 213.074C93.9879 213.074 97.8869 210.072 99.0319 205.792L108.171 208.226C105.922 216.653 98.2686 222.533 89.5422 222.533Z" fill="black"/>
<path d="M340.712 181.12H328.612L346.392 127.264H365.943L384.387 181.12H371.845L367.492 167.767H344.991L340.712 181.12ZM348.163 157.733H364.172L357.459 137.15H354.729L348.163 157.733Z" fill="black"/>
<path d="M402.479 181.12H391.413V127.264H408.086L420.407 157.512H421.808L433.982 127.264H450.95V181.12H438.998V139.437L426.456 170.201H414.947L402.479 139.806V181.12Z" fill="black"/>
<path d="M481.767 182.522C467.085 182.522 459.265 175.071 459.265 164.595H470.995C470.995 168.726 474.168 172.341 481.767 172.341C488.48 172.341 492.095 169.464 492.095 165.332C492.095 161.865 489.292 159.873 482.726 159.283L478.668 158.914C467.897 158.028 461.036 151.979 461.036 142.388C461.036 132.059 468.856 125.641 480.881 125.641C493.571 125.641 501.17 132.649 501.17 143.199H489.366C489.366 139.289 486.488 135.822 480.881 135.822C475.496 135.822 472.84 138.847 472.84 142.388C472.84 145.486 474.832 147.995 479.775 148.364L483.906 148.733C495.637 149.765 503.9 155.372 503.9 165.332C503.9 175.735 495.415 182.522 481.767 182.522Z" fill="black"/>
<path d="M533.448 181.12H521.348V137.814H506.224V127.264H548.645V137.814H533.448V181.12Z" fill="black"/>
<path d="M590.12 181.12H556.257V127.264H589.603V137.297H568.061V148.733H588.423V158.766H568.061V171.087H590.12V181.12Z" fill="black"/>
<path d="M612.16 181.12H600.061V126.821H621.235C634.736 126.821 643.147 132.871 643.147 144.896V146.077C643.147 153.971 639.458 159.209 633.039 161.865L646.762 181.12H632.744L621.014 163.857H612.16V181.12ZM622.194 137.076H612.16V154.34H622.194C627.432 154.34 630.9 150.946 630.9 145.708C630.9 140.543 627.432 137.076 622.194 137.076Z" fill="black"/>
<path d="M673.946 181.415H653.952V126.821H673.946C693.349 126.821 703.161 139.215 703.161 153.233V154.856C703.161 167.988 693.349 181.415 673.946 181.415ZM674.61 138.109H666.052V170.128H674.61C684.791 170.128 690.914 163.709 690.914 154.044C690.914 143.937 684.791 138.109 674.61 138.109Z" fill="black"/>
<path d="M716.293 181.12H704.194L721.974 127.264H741.525L759.969 181.12H747.427L743.074 167.767H720.572L716.293 181.12ZM723.745 157.733H739.754L733.041 137.15H730.311L723.745 157.733Z" fill="black"/>
<path d="M778.061 181.12H766.994V127.264H783.668L795.989 157.512H797.39L809.563 127.264H826.532V181.12H814.58V139.437L802.038 170.201H790.529L778.061 139.806V181.12Z" fill="black"/>
<path d="M342.999 254.897H334.883V201.04H346.835L361.59 235.051H362.845L377.452 201.04H389.552V254.897H380.772V211.147L366.755 243.83H357.016L342.999 211.442V254.897Z" fill="black"/>
<path d="M436.512 254.897H403.977V201.04H435.848V208.713H412.756V223.689H434.446V231.362H412.756V247.224H436.512V254.897Z" fill="black"/>
<path d="M480.605 254.897H448.069V201.04H479.941V208.713H456.849V223.689H478.539V231.362H456.849V247.224H480.605V254.897Z" fill="black"/>
<path d="M511.565 254.897H502.712V208.86H486.777V201.04H527.575V208.86H511.565V254.897Z" fill="black"/>
<path d="M558.163 256.225C543.26 256.225 535.366 247.15 535.366 233.354V201.04H544.219V234.092C544.219 242.502 549.162 248.035 558.163 248.035C567.016 248.035 572.033 242.576 572.033 234.092V201.04H580.886V233.354C580.886 247.15 573.066 256.225 558.163 256.225Z" fill="black"/>
<path d="M603.178 254.897H594.325V200.671H611.884C625.237 200.671 632.615 207.532 632.615 218.377V219.558C632.615 230.403 625.237 237.264 611.884 237.264H603.178V254.897ZM612.917 208.418H603.178V229.518H612.917C619.925 229.518 623.614 225.091 623.614 218.968C623.614 212.844 619.925 208.418 612.917 208.418Z" fill="black"/>
</svg>
