<svg width="982" height="301" viewBox="0 0 982 301" fill="none" xmlns="http://www.w3.org/2000/svg">
  <rect width="982" height="301" rx="8" fill="white"/>
  <g transform="translate(20 20)">
    <path fill-rule="evenodd" clip-rule="evenodd" d="M73.6584 77.4667C69.6254 61.1554 63.6816 25.1434 80.0266 15.8225C96.5838 6.2899 124.816 29.5919 136.916 41.2428C128 50.7755 119.934 60.9436 112.292 71.5354C99.1312 72.3828 86.3949 74.501 73.6584 77.4667ZM129.911 70.0524C135.217 63.0618 140.736 56.7068 146.256 50.7755C151.775 56.7068 157.081 63.0618 162.601 70.0524C151.562 69.417 140.736 69.417 129.911 70.0524ZM119.722 84.0337C137.553 82.7626 155.171 82.7626 173.002 84.0337C182.13 97.1676 190.196 110.937 197.413 125.342C198.262 126.825 198.899 128.519 199.748 130.002L197.413 134.663C190.196 148.855 182.13 162.837 173.002 175.97C155.171 177.241 137.553 177.241 119.722 175.97C109.745 161.354 100.829 145.89 93.1876 130.002C100.829 114.326 109.745 98.8623 119.722 84.0337ZM197.413 163.26C200.597 157.753 203.782 152.033 206.965 146.313C210.362 154.363 213.122 162.413 215.669 170.039C209.937 171.31 203.782 172.581 197.626 173.428C195.291 173.852 193.168 174.064 190.62 174.488C192.531 170.674 194.866 166.862 197.413 163.26ZM77.2672 90.3887C85.1211 88.4822 93.3999 87.2112 102.315 85.9401C96.5838 95.0491 91.0648 104.582 85.9702 114.114C82.574 106.065 79.6021 98.0149 77.2672 90.3887ZM155.596 219.396C164.511 209.864 172.577 199.696 180.219 189.104C185.95 188.469 191.682 187.833 197.201 187.198C204.843 186.139 212.061 184.656 218.852 183.173C222.886 199.484 229.042 235.495 212.485 244.817C208.451 247.148 203.145 247.57 197.201 246.089C188.498 243.969 177.884 238.039 166.846 229.141C163.025 225.964 159.417 222.787 155.596 219.396ZM85.7579 146.102C90.8525 155.634 96.3716 165.167 102.103 174.276C93.3999 173.217 84.9089 171.734 77.0549 169.827C79.3898 162.413 82.1494 154.151 85.7579 146.102ZM73.6584 182.749C86.3949 185.715 99.3435 187.622 112.292 188.892C119.722 199.484 128 209.652 136.916 219.184C124.816 230.625 96.5838 253.926 80.0266 244.605C63.6816 235.495 69.4129 199.484 73.6584 182.749ZM13.5854 130.214C13.5854 111.361 47.9736 98.4386 64.1063 93.7781C67.9271 106.276 72.5971 118.351 78.1162 130.214C72.5971 142.077 67.9271 154.151 64.1063 166.65C47.7614 161.989 13.5854 148.855 13.5854 130.214ZM60.4976 179.572C54.9786 202.45 49.6717 242.7 73.2339 256.468C96.7961 270.026 129.274 245.241 146.468 228.929C150.501 232.742 154.534 236.343 158.568 239.52C172.365 250.537 185.738 257.527 197.626 259.645C205.055 261.34 212.908 260.068 219.702 256.468C243.265 242.911 237.956 202.45 232.438 179.572C254.94 173.005 292.935 157.329 292.935 130.214C292.935 103.099 255.151 87.4231 232.438 80.8562C237.956 57.9779 243.477 17.5172 219.702 3.9597C212.908 0.146655 205.055 -0.912524 197.413 0.782163C178.309 4.17154 158.568 19.8474 146.468 31.4984C129.486 15.3988 97.0084 -9.59779 73.2339 3.9597C49.6717 17.5172 54.9786 57.9779 60.4976 80.8562C37.7845 87.4231 0 103.099 0 130.214C0 157.329 37.9968 173.005 60.4976 179.572ZM197.413 97.3793C195.078 93.5664 192.956 89.965 190.62 86.1521C192.956 86.3638 195.291 86.7875 197.413 87.2112C203.782 88.2705 209.725 89.3296 215.669 90.6006C213.334 98.2266 210.362 106.276 206.965 114.326C203.782 108.395 200.385 102.887 197.413 97.3793ZM155.596 40.8191C164.511 32.3457 181.917 17.729 196.989 14.1278C202.083 12.645 207.602 13.0686 212.273 15.6107C228.618 25.1434 222.674 61.1554 218.641 77.255C211.847 75.772 204.418 74.2892 196.989 73.2299C191.47 72.3828 185.951 71.7472 180.007 71.3235C172.577 60.7317 164.723 50.3518 155.596 40.8191ZM228.618 166.438C224.797 153.939 220.126 141.865 214.607 130.002C220.126 118.139 224.797 106.065 228.618 93.7781C244.75 98.4386 279.138 111.149 279.138 130.214C279.138 149.279 244.538 161.566 228.618 166.438ZM129.911 190.163C140.736 190.587 151.775 190.587 162.601 190.163C157.294 197.154 151.775 203.721 146.256 209.441C140.736 203.721 135.217 197.366 129.911 190.163Z" fill="black"/>
    <path fill-rule="evenodd" clip-rule="evenodd" d="M147.591 151.893C159.603 151.893 169.168 142.101 169.168 130.083C169.168 118.065 159.381 108.496 147.369 108.496C135.357 108.496 125.792 118.288 125.792 130.083C126.237 142.101 136.024 151.893 147.591 151.893Z" fill="black"/>
    <path d="M374.083 74.8629V14.0614H401.829C409.517 14.0614 415.414 16.117 419.518 20.2284C422.986 23.7027 424.72 28.3932 424.72 34.2996C424.72 43.6225 420.385 49.9053 411.714 53.1481L426.541 74.8629H410.934L397.754 55.4064H387.436V74.8629H374.083ZM387.436 43.5935H400.962C404.199 43.5935 406.714 42.8118 408.506 41.2483C410.298 39.627 411.194 37.4844 411.194 34.8207C411.194 31.9833 410.269 29.8408 408.419 28.3932C406.569 26.8876 403.997 26.1348 400.702 26.1348H387.436V43.5935Z" fill="black"/>
    <path d="M436.743 74.8629V14.0614H482.525V25.9611H450.009V38.2951H478.623V50.1949H450.009V62.9632H482.958V74.8629H436.743Z" fill="black"/>
    <path d="M489.628 74.8629L515.64 13.6271H527.953L553.965 74.8629H540.005L534.456 61.226H508.79L503.241 74.8629H489.628ZM513.559 49.4131H529.687L521.623 29.696L513.559 49.4131Z" fill="black"/>
    <path d="M587.878 75.9052C578.976 75.9052 571.548 72.8941 565.594 66.8718C559.698 60.7917 556.75 53.3218 556.75 44.4621C556.75 35.6604 559.727 28.2194 565.681 22.1393C571.635 16.0591 579.207 13.019 588.398 13.019C593.659 13.019 598.081 13.8876 601.665 15.6248C605.249 17.3041 608.659 19.7362 611.896 22.921L603.919 32.1281C601.318 29.7539 598.861 28.0457 596.549 27.0034C594.294 25.9032 591.549 25.3531 588.312 25.3531C583.225 25.3531 579.005 27.2061 575.652 30.9121C572.357 34.5602 570.71 39.0769 570.71 44.4621C570.71 49.7895 572.357 54.3062 575.652 58.0122C579.005 61.7182 583.225 63.5712 588.312 63.5712C591.549 63.5712 594.352 62.9921 596.722 61.834C599.092 60.6759 601.607 58.8808 604.266 56.4487L612.763 65.569C609.468 69.1012 605.884 71.707 602.011 73.3863C598.196 75.0656 593.485 75.9052 587.878 75.9052Z" fill="black"/>
    <path d="M637.586 74.8629V26.3954H619.117V14.0614H669.408V26.3954H650.939V74.8629H637.586Z" fill="black"/>
    <path d="M368.88 161.722L394.893 100.486H407.205L433.218 161.722H419.258L413.708 148.085H388.043L382.494 161.722H368.88ZM392.812 136.272H408.939L400.876 116.555L392.812 136.272Z" fill="black"/>
    <path d="M442.585 161.722V100.921H456.979L472.933 126.631L488.887 100.921H503.281V161.722H490.015V122.028L472.933 147.999H472.586L455.678 122.288V161.722H442.585Z" fill="black"/>
    <path d="M539.452 162.591C529.51 162.591 520.926 159.348 513.7 152.863L521.591 143.395C527.544 148.317 533.585 150.778 539.712 150.778C542.429 150.778 544.568 150.257 546.129 149.215C547.69 148.172 548.47 146.725 548.47 144.872C548.47 143.134 547.661 141.745 546.042 140.702C544.424 139.602 541.158 138.415 536.244 137.141C532.776 136.272 529.972 135.433 527.834 134.622C525.695 133.754 523.643 132.624 521.677 131.235C519.77 129.845 518.353 128.108 517.429 126.023C516.561 123.881 516.128 121.333 516.128 118.379C516.128 112.878 518.093 108.449 522.024 105.09C526.013 101.731 531.128 100.052 537.371 100.052C545.984 100.052 553.499 102.629 559.915 107.783L552.979 117.858C547.256 113.863 541.996 111.865 537.198 111.865C534.712 111.865 532.776 112.386 531.389 113.428C530.059 114.413 529.394 115.716 529.394 117.337C529.394 119.306 530.232 120.783 531.909 121.767C533.585 122.751 537.111 123.938 542.487 125.328C549.077 127.065 553.933 129.295 557.054 132.016C560.176 134.738 561.736 138.647 561.736 143.742C561.736 149.649 559.684 154.281 555.58 157.64C551.534 160.941 546.158 162.591 539.452 162.591Z" fill="black"/>
    <path d="M586.188 161.722V113.255H567.719V100.921H618.01V113.255H599.541V161.722H586.188Z" fill="black"/>
    <path d="M628.279 161.722V100.921H674.061V112.82H641.545V125.154H670.159V137.054H641.545V149.823H674.494V161.722H628.279Z" fill="black"/>
    <path d="M686.367 161.722V100.921H714.113C721.801 100.921 727.697 102.976 731.802 107.088C735.27 110.562 737.004 115.253 737.004 121.159C737.004 130.482 732.669 136.765 723.998 140.007L738.825 161.722H723.217L710.038 142.266H699.72V161.722H686.367ZM699.72 130.453H713.246C716.483 130.453 718.998 129.671 720.79 128.108C722.582 126.486 723.478 124.344 723.478 121.68C723.478 118.843 722.553 116.7 720.703 115.253C718.853 113.747 716.281 112.994 712.986 112.994H699.72V130.453Z" fill="black"/>
    <path d="M749.027 161.722V100.921H772.698C782.178 100.921 789.924 103.816 795.936 109.607C801.947 115.339 804.953 122.578 804.953 131.322C804.953 140.007 801.918 147.246 795.849 153.036C789.837 158.827 782.12 161.722 772.698 161.722H749.027ZM762.38 149.649H772.698C778.189 149.649 782.611 147.97 785.964 144.611C789.317 141.195 790.993 136.765 790.993 131.322C790.993 125.936 789.288 121.535 785.877 118.119C782.525 114.702 778.132 112.994 772.698 112.994H762.38V149.649Z" fill="black"/>
    <path d="M807.331 161.722L833.343 100.486H845.656L871.668 161.722H857.708L852.159 148.085H826.493L820.944 161.722H807.331ZM831.262 136.272H847.39L839.326 116.555L831.262 136.272Z" fill="black"/>
    <path d="M881.036 161.722V100.921H895.429L911.384 126.631L927.338 100.921H941.731V161.722H928.465V122.028L911.384 147.999H911.037L894.129 122.288V161.722H881.036Z" fill="black"/>
    <path d="M375.383 248.582V187.78H382.32L404.431 220.96L426.541 187.78H433.478V248.582H426.628V199.332L404.517 231.905H404.17L382.06 199.419V248.582H375.383Z" fill="black"/>
    <path d="M450.66 248.582V187.78H494.534V194.034H457.51V214.793H490.632V221.047H457.51V242.328H494.968V248.582H450.66Z" fill="black"/>
    <path d="M508.748 248.582V187.78H552.622V194.034H515.598V214.793H548.72V221.047H515.598V242.328H553.055V248.582H508.748Z" fill="black"/>
    <path d="M582.876 248.582V194.121H562.5V187.78H610.189V194.121H589.813V248.582H582.876Z" fill="black"/>
    <path d="M647.338 249.537C639.65 249.537 633.522 247.25 628.956 242.675C624.389 238.043 622.106 231.528 622.106 223.132V187.78H628.956V222.698C628.956 229.241 630.574 234.308 633.812 237.898C637.106 241.43 641.673 243.196 647.511 243.196C653.234 243.196 657.714 241.488 660.951 238.072C664.188 234.655 665.807 229.675 665.807 223.132V187.78H672.657V222.611C672.657 231.297 670.373 237.956 665.807 242.588C661.24 247.221 655.084 249.537 647.338 249.537Z" fill="black"/>
    <path d="M688.853 248.582V187.78H711.57C718.507 187.78 724.027 189.517 728.131 192.992C732.236 196.466 734.288 201.214 734.288 207.237C734.288 213.548 732.004 218.441 727.438 221.916C722.929 225.39 717.264 227.127 710.443 227.127H695.703V248.582H688.853ZM695.703 220.874H710.703C715.732 220.874 719.75 219.657 722.755 217.225C725.819 214.735 727.351 211.435 727.351 207.323C727.351 203.096 725.877 199.854 722.929 197.595C720.039 195.279 716.079 194.121 711.05 194.121H695.703V220.874Z" fill="black"/>
  </g>
</svg>
